<svg width="56" height="56" viewBox="0 0 56 56" fill="none" xmlns="http://www.w3.org/2000/svg">
<path d="M9.33332 42H14V51.5223L25.9023 42H37.3333C39.907 42 42 39.907 42 37.3333V18.6667C42 16.093 39.907 14 37.3333 14H9.33332C6.75966 14 4.66666 16.093 4.66666 18.6667V37.3333C4.66666 39.907 6.75966 42 9.33332 42Z" fill="white"/>
<path d="M46.6667 4.66675H18.6667C16.093 4.66675 14 6.75975 14 9.33341H42C44.5737 9.33341 46.6667 11.4264 46.6667 14.0001V32.6667C49.2403 32.6667 51.3333 30.5737 51.3333 28.0001V9.33341C51.3333 6.75975 49.2403 4.66675 46.6667 4.66675Z" fill="white"/>
</svg>
