<svg width="81" height="87" viewBox="0 0 81 87" fill="none" xmlns="http://www.w3.org/2000/svg">
<path d="M10.0994 75.5H8.77841C8.70028 75.12 8.56357 74.7862 8.36825 74.4986C8.17649 74.2109 7.94212 73.9695 7.66513 73.7741C7.39169 73.5753 7.08807 73.4261 6.75426 73.3267C6.42045 73.2273 6.07244 73.1776 5.71023 73.1776C5.04972 73.1776 4.45135 73.3445 3.91513 73.6783C3.38246 74.0121 2.9581 74.5039 2.64205 75.1538C2.32955 75.8036 2.1733 76.6009 2.1733 77.5455C2.1733 78.4901 2.32955 79.2873 2.64205 79.9371C2.9581 80.587 3.38246 81.0788 3.91513 81.4126C4.45135 81.7464 5.04972 81.9134 5.71023 81.9134C6.07244 81.9134 6.42045 81.8636 6.75426 81.7642C7.08807 81.6648 7.39169 81.5174 7.66513 81.3221C7.94212 81.1232 8.17649 80.88 8.36825 80.5923C8.56357 80.3011 8.70028 79.9673 8.77841 79.5909H10.0994C10 80.1484 9.81889 80.6474 9.55611 81.0877C9.29332 81.5281 8.96662 81.9027 8.57599 82.2116C8.18537 82.517 7.7468 82.7496 7.2603 82.9094C6.77734 83.0692 6.26065 83.1491 5.71023 83.1491C4.77983 83.1491 3.95241 82.9219 3.22798 82.4673C2.50355 82.0128 1.93359 81.3665 1.51811 80.5284C1.10263 79.6903 0.894886 78.696 0.894886 77.5455C0.894886 76.3949 1.10263 75.4006 1.51811 74.5625C1.93359 73.7244 2.50355 73.0781 3.22798 72.6236C3.95241 72.169 4.77983 71.9418 5.71023 71.9418C6.26065 71.9418 6.77734 72.0217 7.2603 72.1815C7.7468 72.3413 8.18537 72.5756 8.57599 72.8846C8.96662 73.19 9.29332 73.5629 9.55611 74.0032C9.81889 74.44 10 74.9389 10.0994 75.5ZM12.0637 83V74.8182H13.2781V76.054H13.3634C13.5125 75.6491 13.7824 75.3207 14.173 75.0685C14.5637 74.8164 15.004 74.6903 15.4941 74.6903C15.5864 74.6903 15.7018 74.6921 15.8403 74.6957C15.9788 74.6992 16.0835 74.7045 16.1546 74.7116V75.9901C16.1119 75.9794 16.0143 75.9634 15.8616 75.9421C15.7124 75.9173 15.5544 75.9048 15.3875 75.9048C14.9898 75.9048 14.6347 75.9883 14.3222 76.1552C14.0132 76.3185 13.7682 76.5458 13.5871 76.837C13.4095 77.1246 13.3208 77.4531 13.3208 77.8224V83H12.0637ZM22.801 79.6548V74.8182H24.0581V83H22.801V81.6151H22.7157C22.524 82.0305 22.2257 82.3839 21.8208 82.6751C21.416 82.9627 20.9047 83.1065 20.2868 83.1065C19.7754 83.1065 19.3208 82.9947 18.9231 82.771C18.5254 82.5437 18.2129 82.2028 17.9856 81.7482C17.7583 81.2901 17.6447 80.7131 17.6447 80.017V74.8182H18.9018V79.9318C18.9018 80.5284 19.0687 81.0043 19.4025 81.3594C19.7399 81.7145 20.1696 81.892 20.6916 81.892C21.0041 81.892 21.3219 81.8121 21.6451 81.6523C21.9718 81.4925 22.2452 81.2475 22.4654 80.9173C22.6891 80.587 22.801 80.1662 22.801 79.6548ZM27.6176 78.0781V83H26.3605V74.8182H27.575V76.0966H27.6816C27.8733 75.6811 28.1645 75.3473 28.5551 75.0952C28.9458 74.8395 29.45 74.7116 30.0679 74.7116C30.6219 74.7116 31.1066 74.8253 31.5221 75.0526C31.9376 75.2763 32.2607 75.6172 32.4916 76.0753C32.7224 76.5298 32.8378 77.1051 32.8378 77.8011V83H31.5807V77.8864C31.5807 77.2436 31.4138 76.7429 31.08 76.3842C30.7462 76.022 30.2881 75.8409 29.7057 75.8409C29.3044 75.8409 28.9458 75.9279 28.6297 76.1019C28.3172 76.2759 28.0704 76.5298 27.8893 76.8636C27.7082 77.1974 27.6176 77.6023 27.6176 78.0781ZM38.4588 83.1705C37.6918 83.1705 37.0313 82.9893 36.4773 82.6271C35.9233 82.2649 35.4972 81.766 35.1989 81.1303C34.9006 80.4947 34.7514 79.7685 34.7514 78.9517C34.7514 78.1207 34.9041 77.3874 35.2095 76.7518C35.5185 76.1126 35.9482 75.6136 36.4986 75.255C37.0526 74.8928 37.6989 74.7116 38.4375 74.7116C39.0128 74.7116 39.5312 74.8182 39.9929 75.0312C40.4545 75.2443 40.8327 75.5426 41.1275 75.9261C41.4222 76.3097 41.6051 76.7571 41.6761 77.2685H40.419C40.3232 76.8956 40.1101 76.5653 39.7798 76.2777C39.4531 75.9865 39.0128 75.8409 38.4588 75.8409C37.9688 75.8409 37.5391 75.9687 37.1697 76.2244C36.804 76.4766 36.5181 76.8335 36.3121 77.2951C36.1097 77.7532 36.0085 78.2912 36.0085 78.9091C36.0085 79.5412 36.108 80.0916 36.3068 80.5604C36.5092 81.0291 36.7933 81.3931 37.1591 81.6523C37.5284 81.9116 37.9616 82.0412 38.4588 82.0412C38.7855 82.0412 39.082 81.9844 39.3484 81.8707C39.6147 81.7571 39.8402 81.5938 40.0249 81.3807C40.2095 81.1676 40.3409 80.9119 40.419 80.6136H41.6761C41.6051 81.0966 41.4293 81.5316 41.1488 81.9187C40.8718 82.3022 40.5043 82.6076 40.0462 82.8349C39.5916 83.0586 39.0625 83.1705 38.4588 83.1705ZM44.771 78.0781V83H43.5138V72.0909H44.771V76.0966H44.8775C45.0692 75.674 45.3569 75.3384 45.7404 75.0898C46.1275 74.8377 46.6424 74.7116 47.2852 74.7116C47.8427 74.7116 48.331 74.8235 48.75 75.0472C49.169 75.2674 49.494 75.6065 49.7248 76.0646C49.9592 76.5192 50.0763 77.098 50.0763 77.8011V83H48.8192V77.8864C48.8192 77.2365 48.6506 76.734 48.3132 76.3789C47.9794 76.0202 47.516 75.8409 46.9229 75.8409C46.511 75.8409 46.1417 75.9279 45.815 76.1019C45.4918 76.2759 45.2362 76.5298 45.0479 76.8636C44.8633 77.1974 44.771 77.6023 44.771 78.0781ZM52.8928 86.0682C52.6798 86.0682 52.4898 86.0504 52.3229 86.0149C52.156 85.983 52.0406 85.951 51.9767 85.919L52.2963 84.8111C52.6017 84.8892 52.8715 84.9176 53.1059 84.8963C53.3403 84.875 53.548 84.7702 53.7291 84.582C53.9138 84.3974 54.0825 84.0973 54.2352 83.6818L54.4695 83.0426L51.444 74.8182H52.8076L55.0661 81.3381H55.1514L57.4099 74.8182H58.7735L55.3005 84.1932C55.1443 84.6158 54.9507 84.9656 54.7199 85.2425C54.4891 85.5231 54.221 85.7308 53.9156 85.8658C53.6137 86.0007 53.2728 86.0682 52.8928 86.0682ZM60.4328 83V74.8182H61.6473V76.054H61.7325C61.8817 75.6491 62.1515 75.3207 62.5422 75.0685C62.9328 74.8164 63.3731 74.6903 63.8632 74.6903C63.9555 74.6903 64.0709 74.6921 64.2094 74.6957C64.3479 74.6992 64.4527 74.7045 64.5237 74.7116V75.9901C64.4811 75.9794 64.3834 75.9634 64.2307 75.9421C64.0816 75.9173 63.9236 75.9048 63.7567 75.9048C63.3589 75.9048 63.0038 75.9883 62.6913 76.1552C62.3824 76.3185 62.1373 76.5458 61.9562 76.837C61.7787 77.1246 61.6899 77.4531 61.6899 77.8224V83H60.4328ZM69.0887 83.1705C68.3501 83.1705 67.702 82.9947 67.1444 82.6431C66.5905 82.2915 66.1572 81.7997 65.8447 81.1676C65.5358 80.5355 65.3813 79.7969 65.3813 78.9517C65.3813 78.0994 65.5358 77.3555 65.8447 76.7198C66.1572 76.0842 66.5905 75.5906 67.1444 75.239C67.702 74.8874 68.3501 74.7116 69.0887 74.7116C69.8273 74.7116 70.4736 74.8874 71.0276 75.239C71.5851 75.5906 72.0184 76.0842 72.3273 76.7198C72.6398 77.3555 72.7961 78.0994 72.7961 78.9517C72.7961 79.7969 72.6398 80.5355 72.3273 81.1676C72.0184 81.7997 71.5851 82.2915 71.0276 82.6431C70.4736 82.9947 69.8273 83.1705 69.0887 83.1705ZM69.0887 82.0412C69.6498 82.0412 70.1114 81.8974 70.4736 81.6097C70.8358 81.3221 71.104 80.9439 71.278 80.4751C71.452 80.0064 71.539 79.4986 71.539 78.9517C71.539 78.4048 71.452 77.8952 71.278 77.4229C71.104 76.9506 70.8358 76.5689 70.4736 76.2777C70.1114 75.9865 69.6498 75.8409 69.0887 75.8409C68.5276 75.8409 68.066 75.9865 67.7037 76.2777C67.3415 76.5689 67.0734 76.9506 66.8994 77.4229C66.7254 77.8952 66.6384 78.4048 66.6384 78.9517C66.6384 79.4986 66.7254 80.0064 66.8994 80.4751C67.0734 80.9439 67.3415 81.3221 67.7037 81.6097C68.066 81.8974 68.5276 82.0412 69.0887 82.0412ZM75.9721 72.0909V83H74.715V72.0909H75.9721ZM79.5317 72.0909V83H78.2746V72.0909H79.5317Z" fill="#F49B01"/>
<g clip-path="url(#clip0_140_67)">
<path d="M17.3937 34.1498C17.4064 19.3421 29.4234 7.35305 44.2312 7.36576C58.4035 7.37847 69.9961 18.3941 70.9441 32.3224C70.9797 31.7276 70.9983 31.1295 71 30.528C71.0178 13.6869 57.3767 0.0152628 40.5305 1.27764e-05C23.6844 -0.0152372 10.0178 13.6233 10 30.4695C9.98223 47.3157 23.6234 60.9848 40.4695 61C41.1676 61 41.8581 60.9771 42.541 60.9314C28.4957 60.0723 17.3785 48.4086 17.3937 34.1498ZM58.7822 34.5438C56.0193 34.5404 53.3709 33.44 51.4191 31.4844C49.4674 29.5289 48.3721 26.8782 48.3741 24.1153C48.3756 21.9715 49.0383 19.8802 50.2719 18.1268C51.5055 16.3733 53.2498 15.043 55.2671 14.3172C51.9877 12.5842 48.3343 11.6793 44.6251 11.6815C40.0973 11.6765 35.6696 13.0143 31.9021 15.5257C28.1345 18.0371 25.1963 21.6094 23.459 25.7907C21.7218 29.972 21.2635 34.5746 22.1421 39.0165C23.0207 43.4583 25.1967 47.5398 28.395 50.7449C31.5933 53.9499 35.6703 56.1346 40.1102 57.0225C44.5502 57.9105 49.1537 57.4619 53.3387 55.7335C57.5237 54.005 61.1021 51.0744 63.6215 47.3121C66.1409 43.5499 67.488 39.1251 67.4925 34.5972C67.4908 33.162 67.3637 31.7632 67.1113 30.4009C66.1385 31.6898 64.8794 32.7349 63.4336 33.4539C61.9877 34.1729 60.3945 34.546 58.7797 34.5438H58.7822Z" fill="#F49B01"/>
</g>
<defs>
<clipPath id="clip0_140_67">
<rect width="61" height="61" fill="white" transform="translate(10)"/>
</clipPath>
</defs>
</svg>
