<svg width="27" height="27" viewBox="0 0 27 27" fill="none" xmlns="http://www.w3.org/2000/svg">
<path opacity="0.3" fill-rule="evenodd" clip-rule="evenodd" d="M0.0944999 4.3983C-9.05246e-08 4.8951 0 5.4918 0 6.6825V16.2C0 21.2909 -1.60933e-07 23.8369 1.5822 25.4178C3.1644 26.9986 5.70915 27 10.8 27H16.2C21.2909 27 23.8369 27 25.4178 25.4178C26.9986 23.8356 27 21.2909 27 16.2V13.2273C27 9.6741 27 7.89615 25.9605 6.7419C25.8651 6.63538 25.7642 6.53399 25.6581 6.43815C24.5039 5.4 22.7259 5.4 19.1727 5.4H18.6678C17.1113 5.4 16.3323 5.4 15.606 5.19345C15.2074 5.07952 14.8233 4.92007 14.4612 4.71825C13.8024 4.3524 13.2516 3.80025 12.15 2.7L11.4075 1.9575C11.0376 1.5876 10.854 1.404 10.6596 1.242C9.8235 0.548963 8.79786 0.124124 7.7166 0.0229499C7.4655 -5.53206e-08 7.2036 0 6.6825 0C5.49045 0 4.8951 -9.05246e-08 4.3983 0.0944999C3.33158 0.295952 2.35035 0.814235 1.58261 1.58173C0.814877 2.34922 0.296287 3.33165 0.0944999 4.3983ZM19.2821 1.35C19.7748 1.35 20.0219 1.35 20.2298 1.377C21.6041 1.566 22.6976 2.65005 22.9487 4.05C22.743 4.00385 22.5353 3.96737 22.3263 3.94065C21.4623 3.82725 20.3715 3.82725 19.0188 3.82725H18.5679C17.2962 3.82725 16.8129 3.8205 16.3741 3.6909C16.1187 3.6153 15.8731 3.50971 15.6425 3.37635C15.2429 3.14685 14.8973 2.79855 13.9982 1.86705L13.5 1.35H19.2821ZM14.85 9.7875C14.5815 9.7875 14.3239 9.89417 14.1341 10.0841C13.9442 10.2739 13.8375 10.5315 13.8375 10.8C13.8375 11.0685 13.9442 11.3261 14.1341 11.5159C14.3239 11.7058 14.5815 11.8125 14.85 11.8125H21.6C21.8685 11.8125 22.1261 11.7058 22.3159 11.5159C22.5058 11.3261 22.6125 11.0685 22.6125 10.8C22.6125 10.5315 22.5058 10.2739 22.3159 10.0841C22.1261 9.89417 21.8685 9.7875 21.6 9.7875H14.85Z" fill="white"/>
</svg>
