<?xml version="1.0" encoding="UTF-8"?>
<svg version="1.1" xmlns="http://www.w3.org/2000/svg" width="400" height="125">
<path d="M0 0 C132 0 264 0 400 0 C400 41.25 400 82.5 400 125 C268 125 136 125 0 125 C0 83.75 0 42.5 0 0 Z " fill="#133B8E" transform="translate(0,0)"/>
<path d="M0 0 C33.53212447 -0.1209091 33.53212447 -0.1209091 47.59765625 -0.14648438 C57.30457318 -0.16427627 67.01141191 -0.18517766 76.71826172 -0.22631836 C83.78812279 -0.25626832 90.85792034 -0.27558628 97.92784309 -0.28226548 C101.6695454 -0.28616829 105.41106602 -0.29530783 109.15270996 -0.31719017 C113.33496072 -0.34144976 117.51689782 -0.34196641 121.69921875 -0.34057617 C122.93280624 -0.351362 124.16639374 -0.36214783 125.43736267 -0.3732605 C139.27194718 -0.32351481 139.27194718 -0.32351481 144.54936218 4.38123798 C148.63816071 8.96525101 149.33504626 13.02541186 149.25878906 19.05957031 C148.65439038 25.92690781 146.8938479 32.66223095 145.375 39.375 C145.00656558 41.03505142 144.63897997 42.69529144 144.2722168 44.35571289 C143.5358401 47.68218372 142.79418757 51.00740227 142.04736328 54.33154297 C140.86528601 59.59313514 139.70512321 64.85941018 138.54541016 70.12597656 C137.82661352 73.3737306 137.09580626 76.61859992 136.36328125 79.86328125 C135.43801312 83.97710552 134.56566549 88.09744921 133.73046875 92.23046875 C133.52252686 93.22570557 133.31458496 94.22094238 133.1003418 95.24633789 C132.71748777 97.08213774 132.34892831 98.92101744 131.99926758 100.76342773 C130.44038969 108.09295162 127.24477692 114.01875826 121.69140625 119.12109375 C120.98886719 119.55550781 120.28632812 119.98992187 119.5625 120.4375 C118.86253906 120.88996094 118.16257812 121.34242187 117.44140625 121.80859375 C110.74178434 125.07800924 104.62344603 125.28053162 97.29125977 125.22705078 C96.21989997 125.22729185 95.14854017 125.22753292 94.04471493 125.2277813 C90.59352612 125.22629433 87.14255617 125.21108971 83.69140625 125.1953125 C81.55399683 125.19237016 79.41658596 125.19033089 77.2791748 125.18920898 C69.37359449 125.17874382 61.46804507 125.1508213 53.5625 125.125 C27.0490625 125.063125 27.0490625 125.063125 0 125 C0 83.75 0 42.5 0 0 Z " fill="#FD9A0E" transform="translate(0,0)"/>
<path d="M0 0 C1.28003906 -0.0103125 2.56007812 -0.020625 3.87890625 -0.03125 C7.92912227 0.57339257 9.57051289 1.63835179 12.4375 4.5 C15.0816106 9.78822119 13.52354571 16.69059862 12.16015625 22.1796875 C10.85369351 27.62816958 9.69657547 33.08780967 8.60546875 38.58203125 C8.11324616 41.00488834 7.61836334 43.42718884 7.12280273 45.84936523 C6.78940392 47.49902713 6.46296408 49.1501099 6.14331055 50.80249023 C2.50353966 69.53687664 2.50353966 69.53687664 -5.96875 76.46875 C-9.42285791 77.84207001 -12.35101053 77.97030808 -16.0625 78 C-17.3515625 78.0309375 -18.640625 78.061875 -19.96875 78.09375 C-24.38814118 77.36358972 -25.79120572 75.93309589 -28.5625 72.5 C-31.24788451 67.12923098 -29.25904211 60.00137212 -27.953125 54.40625 C-27.7010025 53.28156311 -27.7010025 53.28156311 -27.44378662 52.13415527 C-26.90797742 49.75422155 -26.3602658 47.37720661 -25.8125 45 C-25.46019648 43.43766691 -25.10862879 41.87516771 -24.7578125 40.3125 C-23.88881799 36.45859304 -22.99580441 32.61079675 -22.09106445 28.76513672 C-21.56450589 26.50859615 -21.05444509 24.24872049 -20.54492188 21.98828125 C-20.21304759 20.56491553 -19.88040018 19.14172979 -19.546875 17.71875 C-19.26038086 16.47029297 -18.97388672 15.22183594 -18.67871094 13.93554688 C-15.60595933 4.47803143 -9.9403799 -0.08024525 0 0 Z " fill="#F6F7FA" transform="translate(230.5625,23.5)"/>
<path d="M0 0 C3.89543877 -0.14553599 7.79017651 -0.23415059 11.6875 -0.3125 C13.34168945 -0.3753418 13.34168945 -0.3753418 15.02929688 -0.43945312 C19.85517673 -0.51235161 23.03836514 -0.55721972 27.26953125 1.89453125 C31.29548152 9.11943072 28.61522326 18.43597398 27.0234375 26.16015625 C26.81570709 27.19007187 26.60797668 28.21998749 26.39395142 29.28111267 C25.95356476 31.44441858 25.50787766 33.60665165 25.05712891 35.76782227 C24.37700674 39.05280746 23.72892045 42.3430967 23.08203125 45.63476562 C22.64777916 47.74779666 22.2116436 49.86044167 21.7734375 51.97265625 C21.58566742 52.94477554 21.39789734 53.91689484 21.20443726 54.91847229 C19.56500143 62.53513328 16.63968892 69.19818668 10.3359375 74.05078125 C5.41253017 75.45170394 0.71373434 75.31553912 -4.375 75.1875 C-5.90833984 75.16719727 -5.90833984 75.16719727 -7.47265625 75.14648438 C-9.9823491 75.11130176 -12.49080043 75.05943983 -15 75 C-14.43703563 67.91156253 -13.3341944 61.07232292 -11.85546875 54.12109375 C-11.64440994 53.11015152 -11.43335114 52.09920929 -11.21589661 51.05763245 C-10.77032679 48.9284503 -10.3222649 46.79978828 -9.87182617 44.67163086 C-9.19473497 41.47169253 -8.52538851 38.27021344 -7.85742188 35.06835938 C-5.40014243 23.33855896 -2.8212008 11.6477705 0 0 Z " fill="#F7F8FA" transform="translate(255,25)"/>
<path d="M0 0 C3.72901814 -0.08736736 7.45777165 -0.14051482 11.1875 -0.1875 C12.24259766 -0.21263672 13.29769531 -0.23777344 14.38476562 -0.26367188 C15.91713867 -0.27817383 15.91713867 -0.27817383 17.48046875 -0.29296875 C18.41785889 -0.3086792 19.35524902 -0.32438965 20.32104492 -0.34057617 C23.55787288 0.07092251 25.3796095 1.0816351 28 3 C31.00743046 7.51114568 30.40529535 11.62379935 29.52636719 16.77685547 C28.85680149 20.00961861 28.12805788 23.22316105 27.375 26.4375 C27.10429688 27.61022461 26.83359375 28.78294922 26.5546875 29.99121094 C25.98865718 32.43680259 25.41927924 34.88162168 24.84667969 37.32568359 C24.02200864 40.90448961 23.24370371 44.49050677 22.4765625 48.08203125 C21.98508766 50.30484519 21.4929282 52.5275079 21 54.75 C20.78778809 55.77794678 20.57557617 56.80589355 20.35693359 57.86499023 C18.75798296 64.86783419 16.39302747 70.22454221 10.14746094 74.17041016 C7.50064936 75.19290512 5.41284837 75.22680943 2.578125 75.1953125 C1.55332031 75.18886719 0.52851562 75.18242188 -0.52734375 75.17578125 C-2.12255859 75.15064453 -2.12255859 75.15064453 -3.75 75.125 C-4.82894531 75.11597656 -5.90789062 75.10695313 -7.01953125 75.09765625 C-9.67991278 75.07411305 -12.33984336 75.04122799 -15 75 C-14.22115314 68.86337146 -12.97481601 62.86061151 -11.6875 56.8125 C-10.37761908 50.61141224 -9.07003969 44.41120768 -7.8515625 38.19140625 C-7.67536377 37.29252686 -7.49916504 36.39364746 -7.31762695 35.4675293 C-6.99000431 33.78602865 -6.66543571 32.10392896 -6.34448242 30.42114258 C-5.71453061 27.19550216 -5.05025163 24.14745652 -3.98828125 21.03125 C-2.65972109 16.95629868 -2.03571097 12.85220183 -1.375 8.625 C-1.2409375 7.79355469 -1.106875 6.96210938 -0.96875 6.10546875 C-0.6413684 4.07102597 -0.32006397 2.03560684 0 0 Z " fill="#FEFBF7" transform="translate(86,25)"/>
<path d="M0 0 C4.95 0 9.9 0 15 0 C15.19965693 12.76936268 14.61433817 25.33928024 13.5625 38.0625 C13.29024591 41.44900425 13.02181985 44.83580618 12.75390625 48.22265625 C12.68877838 49.03755524 12.62365051 49.85245422 12.55654907 50.69204712 C11.9182542 58.7879946 11.44017695 66.89116645 11 75 C7.37 75 3.74 75 0 75 C0 70.05 0 65.1 0 60 C-3.63 60 -7.26 60 -11 60 C-11.495 62.475 -11.495 62.475 -12 65 C-13.22896369 68.38088404 -14.62523806 71.67396305 -16 75 C-19.63 75 -23.26 75 -27 75 C-24.64255184 66.74893145 -21.83149876 58.68559619 -18.93603516 50.61230469 C-17.90510544 47.73516647 -16.88041124 44.85583874 -15.85546875 41.9765625 C-10.82277132 27.87787112 -5.55957259 13.89893146 0 0 Z " fill="#F7F8FA" transform="translate(304,25)"/>
<path d="M0 0 C3.63 0 7.26 0 11 0 C8.66524424 14.7867865 5.88085102 29.53500985 2 44 C4.97 44 7.94 44 11 44 C11.25523438 42.71351562 11.51046875 41.42703125 11.7734375 40.1015625 C13.35659816 32.18575922 14.9946871 24.28119415 16.625 16.375 C16.95315145 14.78255753 17.28127666 13.19010966 17.609375 11.59765625 C18.40594754 7.73170843 19.20287486 3.86583391 20 0 C23.63 0 27.26 0 31 0 C30.39533774 7.37907227 29.20228602 14.41715062 27.6015625 21.640625 C27.36593597 22.72527039 27.13030945 23.80991577 26.88754272 24.9274292 C26.13859512 28.36945248 25.38198373 31.80973613 24.625 35.25 C24.12448127 37.54285557 23.6244769 39.8358235 23.125 42.12890625 C22.17345558 46.49470463 21.21929068 50.85991505 20.26269531 55.22460938 C18.82027719 61.81184028 17.40190673 68.40402138 16 75 C12.37 75 8.74 75 5 75 C5.50862801 67.87920791 6.77121237 61.78326669 9 55 C5.7 55 2.4 55 -1 55 C-1.1546875 56.8871875 -1.1546875 56.8871875 -1.3125 58.8125 C-1.91590491 64.3851218 -3.40690933 69.63960058 -5 75 C-8.3 75 -11.6 75 -15 75 C-14.52244666 66.70550698 -13.28655758 58.88939988 -11.375 50.8125 C-10.83549874 48.46524319 -10.29782779 46.11756516 -9.76171875 43.76953125 C-9.47731934 42.52768066 -9.19291992 41.28583008 -8.89990234 40.00634766 C-7.07669432 31.95553579 -5.41480547 23.86837316 -3.72503662 15.78872681 C-3.29070511 13.71303031 -2.85440542 11.63775469 -2.41796875 9.5625 C-2.16813232 8.36753906 -1.9182959 7.17257813 -1.66088867 5.94140625 C-1 3 -1 3 0 0 Z " fill="#FEFBF7" transform="translate(45,25)"/>
<path d="M0 0 C3.96 0 7.92 0 12 0 C12.33 10.89 12.66 21.78 13 33 C16.15317256 25.43238587 19.28120585 17.86562325 22.3125 10.25 C22.67150391 9.35023437 23.03050781 8.45046875 23.40039062 7.5234375 C24.26773975 5.34928236 25.13399213 3.17468974 26 1 C29.96 1 33.92 1 38 1 C32.10208904 15.72524789 25.6350292 30.17444015 18.875 44.5234375 C18.39546875 45.54219971 18.39546875 45.54219971 17.90625 46.58154297 C17.06684125 48.35850255 16.22118842 50.13250888 15.375 51.90625 C12.91839381 57.43361392 11.50053163 62.94873142 10.375 68.875 C10.2409375 69.56335938 10.106875 70.25171875 9.96875 70.9609375 C9.64227777 72.63993755 9.32063447 74.31987536 9 76 C5.37 76 1.74 76 -2 76 C-1.23287671 66.79452055 -1.23287671 66.79452055 0.0625 62.375 C3.07074424 50.97061139 0.84578374 37.26303907 0.35839844 25.61621094 C0.00970514 17.06946219 -0.11628006 8.55304405 0 0 Z " fill="#F4F5FA" transform="translate(332,24)"/>
<path d="M0 0 C0.33 0 0.66 0 1 0 C1 33.99 1 67.98 1 103 C-11.54 103 -24.08 103 -37 103 C-35.02 102.01 -35.02 102.01 -33 101 C-31.96875 100.29875 -30.9375 99.5975 -29.875 98.875 C-27 97 -27 97 -25 97 C-25 96.34 -25 95.68 -25 95 C-24.38261963 94.4009082 -23.76523926 93.80181641 -23.12915039 93.18457031 C-16.94891719 86.84347105 -15.82742743 75.6228889 -14.0625 67.25 C-13.80799072 66.07260254 -13.55348145 64.89520508 -13.29125977 63.68212891 C-12.7708953 61.27278794 -12.25353789 58.86279546 -11.73925781 56.45214844 C-11.06451948 53.30128977 -10.37612501 50.15393459 -9.6796875 47.0078125 C-6.77747138 33.87170333 -4.09450952 20.69634782 -1.49316406 7.49755859 C-0.99951555 4.99754658 -0.5007287 2.4986026 0 0 Z " fill="#000001" transform="translate(399,22)"/>
<path d="M0 0 C12.54 0 25.08 0 38 0 C36.02 0.99 36.02 0.99 34 2 C32.31191322 3.0496437 30.64619603 4.13580634 29 5.25 C28.154375 5.81203125 27.30875 6.3740625 26.4375 6.953125 C20.63499834 11.82573858 19.00677467 17.53128511 17.375 24.625 C17.16190186 25.51292236 16.94880371 26.40084473 16.72924805 27.31567383 C15.38699587 33.01207377 14.26292932 38.71218708 13.38671875 44.5 C12.59982247 49.58700623 11.35210873 54.56641445 10.125 59.5625 C7.83420428 68.97361441 5.94184687 78.40341401 4.30712891 87.9519043 C4.15034668 88.85465088 3.99356445 89.75739746 3.83203125 90.6875 C3.62670776 91.89986328 3.62670776 91.89986328 3.41723633 93.13671875 C3 95 3 95 2 96 C1.63239269 98.32817964 1.29758419 100.6618385 1 103 C0.67 103 0.34 103 0 103 C0 69.01 0 35.02 0 0 Z " fill="#030100" transform="translate(0,0)"/>
<path d="M0 0 C10.23 0 20.46 0 31 0 C30.67 3.3 30.34 6.6 30 10 C26.37 10 22.74 10 19 10 C18.83673218 11.82132446 18.83673218 11.82132446 18.67016602 13.67944336 C17.97322935 19.92024628 16.61574507 25.99936189 15.27734375 32.12890625 C15.01240616 33.35915024 14.74746857 34.58939423 14.47450256 35.85691833 C13.77573489 39.0978019 13.07312953 42.33782067 12.36859131 45.57745361 C11.64805023 48.8953295 10.93265238 52.21431376 10.21679688 55.53320312 C8.8158914 62.02315964 7.40943864 68.51189154 6 75 C2.37 75 -1.26 75 -5 75 C-4.39549681 66.13094569 -2.59067577 57.61534431 -0.72631836 48.9440918 C-0.19414913 46.46843185 0.33040098 43.99125913 0.85351562 41.51367188 C3.08993096 30.9736057 5.48783741 20.47759729 8 10 C5.03 10 2.06 10 -1 10 C-1.125 3.375 -1.125 3.375 0 0 Z " fill="#F8F9FA" transform="translate(177,25)"/>
<path d="M0 0 C2.4375 0.1875 2.4375 0.1875 3.4375 1.1875 C3.78092564 7.48363674 2.84278467 13.06572865 1.4375 19.1875 C1.23125 20.09628906 1.025 21.00507812 0.8125 21.94140625 C0.33377912 24.02765009 -0.15247108 26.11217452 -0.64453125 28.1953125 C-1.39133228 31.39010197 -2.07982168 34.595446 -2.76171875 37.8046875 C-2.97594482 38.7937207 -3.1901709 39.78275391 -3.41088867 40.80175781 C-3.84038147 42.78621085 -4.26132817 44.7725356 -4.6730957 46.76074219 C-4.87378662 47.67758789 -5.07447754 48.59443359 -5.28125 49.5390625 C-5.45591797 50.36229004 -5.63058594 51.18551758 -5.81054688 52.03369141 C-6.66281717 54.47483703 -7.50374584 55.63581877 -9.5625 57.1875 C-13.98355263 56.76644737 -13.98355263 56.76644737 -15.5625 55.1875 C-15.64185126 45.69105379 -13.28146813 36.37346919 -11.17895508 27.17602539 C-10.62089274 24.73201239 -10.07617611 22.28529558 -9.53320312 19.83789062 C-9.18045854 18.26805571 -8.82696983 16.69838778 -8.47265625 15.12890625 C-8.31112564 14.40490128 -8.14959503 13.6808963 -7.98316956 12.93495178 C-5.09365548 0.3727065 -5.09365548 0.3727065 0 0 Z " fill="#2A3A7E" transform="translate(228.5625,33.8125)"/>
<path d="M0 0 C6.15234375 -0.09765625 6.15234375 -0.09765625 8 0 C9 1 9 1 9.14453125 3.72265625 C9.00614 6.86077127 8.52211329 9.42005194 7.6875 12.4375 C6.47801859 17.02109542 5.45721337 21.59454086 4.5625 26.25 C3.47635798 31.78360775 2.27822761 37.27240158 0.9375 42.75 C0.77515869 43.4296582 0.61281738 44.10931641 0.44555664 44.80957031 C-0.35700391 48.02307329 -1.13957467 50.20936201 -3 53 C-4.9453125 53.29296875 -4.9453125 53.29296875 -7.125 53.1875 C-8.40375 53.125625 -9.6825 53.06375 -11 53 C-9.63211714 41.32561789 -7.07937817 30.04721835 -4.375 18.625 C-3.94997004 16.81002473 -3.52548719 14.99492125 -3.1015625 13.1796875 C-2.07399625 8.7849579 -1.03908893 4.39201879 0 0 Z " fill="#2C408C" transform="translate(264,36)"/>
<path d="M0 0 C6.15234375 -0.09765625 6.15234375 -0.09765625 8 0 C8.33 0.33 8.66 0.66 9 1 C8.93230388 8.6158137 7.0809446 16.20754783 5.50195312 23.6171875 C4.91834644 26.38761611 4.35855675 29.16254562 3.796875 31.9375 C3.36536918 34.02099624 2.93307794 36.10432997 2.5 38.1875 C2.29858398 39.19192139 2.09716797 40.19634277 1.88964844 41.23120117 C1.58849121 42.65396362 1.58849121 42.65396362 1.28125 44.10546875 C1.10658203 44.95262451 0.93191406 45.79978027 0.75195312 46.67260742 C-0.10715988 49.33167375 -1.05854282 50.98875375 -3 53 C-6.6875 53.25 -6.6875 53.25 -10 53 C-9.48312532 45.76359251 -8.50798052 38.81696334 -6.93359375 31.73828125 C-6.73524429 30.82161179 -6.53689484 29.90494232 -6.33253479 28.960495 C-5.70701978 26.07644704 -5.07244016 23.19448591 -4.4375 20.3125 C-4.00785824 18.33932441 -3.57881654 16.36601806 -3.15039062 14.39257812 C-2.10717873 9.59351523 -1.0558412 4.79629943 0 0 Z " fill="#FDA011" transform="translate(95,36)"/>
<path d="M0 0 C0.33 0 0.66 0 1 0 C0.49122826 10.34863375 -0.03202312 20.68177841 -1 31 C-3.97 31 -6.94 31 -10 31 C-7.35692322 20.42769289 -3.67044771 10.2492395 0 0 Z " fill="#374796" transform="translate(307,43)"/>
<path d="M0 0 C0.66 1.32 1.32 2.64 2 4 C3.3418854 5.65422363 3.3418854 5.65422363 4.875 7.125 C5.61363281 7.87136719 5.61363281 7.87136719 6.3671875 8.6328125 C8.25401123 10.31977627 8.25401123 10.31977627 12 12 C8.04 12 4.08 12 0 12 C0 8.04 0 4.08 0 0 Z " fill="#150901" transform="translate(0,113)"/>
<path d="M0 0 C3.96 0 7.92 0 12 0 C12 3.96 12 7.92 12 12 C10.25372522 9.38058783 9.61277612 7.96175123 9 5 C8.34 5 7.68 5 7 5 C7 4.34 7 3.68 7 3 C4.69 2.34 2.38 1.68 0 1 C0 0.67 0 0.34 0 0 Z " fill="#00050A" transform="translate(388,0)"/>
<path d="M0 0 C0.33 0 0.66 0 1 0 C1.25 3.3125 1.25 3.3125 1 7 C-0.32 7.99 -1.64 8.98 -3 10 C-2.01 6.7 -1.02 3.4 0 0 Z " fill="#626BAA" transform="translate(307,43)"/>
</svg>
