<svg width="44" height="47" viewBox="0 0 44 47" fill="none" xmlns="http://www.w3.org/2000/svg">
<path d="M29.1094 34.4055C28.3567 32.8541 27.3836 31.725 25.7037 32.4135L22.3899 33.6435C19.7369 34.8736 18.4151 33.6435 17.084 31.7893L11.1172 18.2217C10.3736 16.6703 10.7592 15.2107 12.4391 14.5223L17.0748 12.668C18.7547 11.9703 18.4885 10.5199 17.7358 8.96855L13.7793 1.56972C13.0266 0.0183553 11.4844 -0.358012 9.8045 0.330465C6.43556 1.7166 3.65411 3.89218 1.85489 7.11425C-0.34823 11.0523 0.753332 16.5326 1.19396 18.8367C1.63458 21.1408 3.17677 25.1799 5.16876 29.3199C7.16075 33.4691 8.91407 36.7279 10.4746 38.573C12.0352 40.4182 15.7805 45.467 20.4162 46.5961C24.2166 47.5141 28.3199 46.743 31.6797 45.3568C33.3596 44.6684 33.3688 43.2088 32.616 41.6482L29.1094 34.4055ZM43.9254 12.6404L40.3086 9.02363L34.8834 14.4488L29.4582 9.02363L25.8414 12.6404L31.2666 18.0656L25.8414 23.5L29.4582 27.1168L34.8834 21.6916L40.3086 27.1168L43.9254 23.5L38.5002 18.0748L43.9254 12.6404Z" fill="#F24822"/>
</svg>
