<svg width="51" height="49" viewBox="0 0 51 49" fill="none" xmlns="http://www.w3.org/2000/svg">
<path d="M2.32102 14V3.09091H3.64205V12.8281H8.71307V14H2.32102ZM12.0795 3.09091V14H10.7585V3.09091H12.0795ZM15.1757 3.09091L18.4143 12.2741H18.5422L21.7808 3.09091H23.1657L19.1601 14H17.7964L13.7907 3.09091H15.1757ZM24.865 14V3.09091H31.4488V4.26278H26.186V7.94886H31.1079V9.12074H26.186V12.8281H31.534V14H24.865Z" fill="white"/>
<path d="M34.7727 18C35.3875 18 35.9772 18.2041 36.4119 18.5675C36.8467 18.9308 37.0909 19.4236 37.0909 19.9375V28.075L49.1756 21.0031C49.3494 20.9013 49.5532 20.8413 49.765 20.8297C49.9767 20.8181 50.1882 20.8553 50.3764 20.9372C50.5646 21.0192 50.7223 21.1427 50.8323 21.2944C50.9422 21.4461 51.0002 21.6201 51 21.7975V45.2025C51.0002 45.3799 50.9422 45.5539 50.8323 45.7056C50.7223 45.8573 50.5646 45.9808 50.3764 46.0628C50.1882 46.1447 49.9767 46.1819 49.765 46.1703C49.5532 46.1587 49.3494 46.0987 49.1756 45.9969L37.0909 38.925V47.0625C37.0909 47.5764 36.8467 48.0692 36.4119 48.4325C35.9772 48.7959 35.3875 49 34.7727 49H2.31818C1.70336 49 1.11372 48.7959 0.67898 48.4325C0.244236 48.0692 0 47.5764 0 47.0625V19.9375C0 19.4236 0.244236 18.9308 0.67898 18.5675C1.11372 18.2041 1.70336 18 2.31818 18H34.7727ZM14.8364 27.3562C14.6226 27.3562 14.4154 27.4178 14.2498 27.5308C14.0842 27.6438 13.9704 27.8011 13.9276 27.9762L13.9091 28.1292V38.8669C13.9091 38.9924 13.9455 39.116 14.0153 39.2271C14.0851 39.3383 14.1861 39.4336 14.3097 39.5049C14.4333 39.5761 14.5758 39.6213 14.7249 39.6364C14.8739 39.6514 15.0252 39.6361 15.1655 39.5915L15.3348 39.5217L25.4305 34.1529C25.5487 34.09 25.6482 34.0055 25.7217 33.9057C25.7952 33.806 25.8407 33.6936 25.8548 33.5771C25.8688 33.4605 25.8511 33.3428 25.8029 33.2328C25.7547 33.1228 25.6773 33.0234 25.5765 32.942L25.4305 32.8451L15.3348 27.4744C15.1852 27.3969 15.0123 27.3546 14.8364 27.3562Z" fill="#C31936"/>
</svg>
