<?xml version="1.0" standalone="no"?>
<!DOCTYPE svg PUBLIC "-//W3C//DTD SVG 20010904//EN"
 "http://www.w3.org/TR/2001/REC-SVG-20010904/DTD/svg10.dtd">
<svg version="1.0" xmlns="http://www.w3.org/2000/svg"
 width="776.000000pt" height="663.000000pt" viewBox="0 0 776.000000 663.000000"
 preserveAspectRatio="xMidYMid meet">
<metadata>
Created by potrace 1.16, written by Peter Selinger 2001-2019
</metadata>
<g transform="translate(0.000000,663.000000) scale(0.100000,-0.100000)"
fill="#000000" stroke="none">
<path d="M1844 6136 c-46 -20 -109 -80 -130 -124 -13 -26 -20 -71 -24 -152
l-5 -115 -201 -5 -200 -5 -75 -37 c-127 -63 -221 -180 -249 -308 -8 -41 -10
-616 -8 -2261 l3 -2205 38 -76 c63 -128 171 -207 312 -228 48 -7 863 -10 2595
-8 2433 3 2527 4 2580 22 71 24 151 77 190 126 17 21 45 69 63 107 l32 68 3
2195 c2 1606 0 2211 -8 2255 -25 132 -120 252 -250 314 l-75 36 -260 5 -260 5
-5 110 c-5 90 -10 119 -30 159 -49 97 -122 136 -260 136 -103 0 -148 -14 -207
-64 -55 -46 -77 -106 -83 -231 l-5 -110 -90 0 -90 0 -6 115 c-6 133 -22 176
-91 234 -52 45 -90 56 -201 56 -99 0 -135 -12 -191 -60 -64 -56 -80 -99 -86
-230 l-5 -115 -765 0 -765 0 -6 111 c-8 160 -45 226 -154 275 -56 26 -214 26
-270 0 -109 -49 -147 -117 -155 -276 l-5 -110 -90 0 -90 0 -6 115 c-4 91 -10
124 -27 156 -27 52 -94 111 -141 124 -53 15 -210 12 -247 -4z m236 -75 c3 -3
16 -12 30 -18 14 -6 19 -12 13 -12 -7 -1 -13 -6 -13 -12 0 -6 6 -9 14 -6 17 7
50 -39 40 -55 -4 -7 -3 -8 4 -4 9 5 11 -68 11 -279 0 -173 -4 -283 -9 -280 -6
3 -7 -1 -4 -9 4 -9 -1 -18 -10 -22 -9 -3 -14 -10 -11 -14 3 -4 -2 -13 -10 -20
-16 -13 -51 -9 -48 6 1 5 -14 8 -33 6 -18 -2 -32 -8 -29 -12 2 -4 16 -5 30 -2
32 6 32 -6 0 -18 -14 -5 -25 -14 -25 -20 0 -11 40 8 52 25 5 6 8 5 8 -2 0 -7
8 -10 18 -7 9 2 -3 -5 -27 -16 -34 -16 -62 -20 -119 -19 -62 1 -72 4 -59 14
23 16 21 24 -3 18 -11 -3 -20 -9 -20 -14 0 -5 -11 -3 -25 3 l-25 11 28 23 c31
27 23 32 -14 8 -13 -9 -26 -15 -27 -13 -27 38 -37 63 -32 79 4 12 2 20 -4 20
-8 0 -11 79 -11 250 0 193 3 250 13 250 9 0 12 -55 12 -242 l-1 -243 3 238 c2
156 7 237 14 237 16 0 8 -512 -9 -518 -6 -2 -10 -8 -6 -13 10 -16 24 1 24 29
0 15 3 22 8 15 4 -6 7 110 7 259 0 148 -3 259 -7 246 l-6 -23 -2 25 c-1 14 -4
19 -7 13 -6 -16 -43 -17 -43 -2 0 6 7 9 15 5 9 -3 15 0 15 10 0 8 -4 12 -10 9
-5 -3 -10 -1 -10 4 0 6 4 11 9 11 5 0 11 8 13 18 5 19 38 27 38 9 0 -5 -6 -7
-14 -4 -9 4 -13 0 -12 -11 2 -9 9 -18 17 -20 8 -3 11 -1 7 3 -11 12 11 35 33
35 11 0 19 5 19 11 0 6 -9 8 -20 4 -11 -3 -28 -1 -37 5 -15 10 -15 11 -1 6 9
-2 19 2 22 10 3 8 10 14 16 14 6 0 8 -5 4 -11 -4 -7 -2 -10 5 -8 7 3 11 9 9
14 -2 5 11 13 27 17 34 7 157 0 165 -11z m730 4 c14 -2 38 -8 54 -14 23 -9 26
-14 16 -26 -10 -12 -8 -14 9 -10 14 2 18 -1 14 -11 -3 -7 -8 -12 -12 -10 -4 3
-8 -10 -9 -27 l-2 -32 16 33 c9 17 21 32 26 32 5 0 7 -4 3 -9 -3 -5 0 -13 6
-16 6 -4 8 -18 5 -31 -4 -13 -3 -24 1 -24 13 0 5 -512 -8 -521 -6 -4 -9 -12
-5 -18 9 -13 -12 -54 -23 -46 -5 2 -14 -2 -21 -10 -7 -8 -9 -15 -4 -15 4 0 -1
-6 -11 -14 -12 -9 -27 -11 -40 -6 -13 5 -28 3 -40 -6 -24 -18 -103 -17 -135 1
-24 14 -24 14 -3 15 12 0 25 -4 28 -10 3 -5 11 -10 17 -10 6 0 5 6 -3 16 -9
12 -24 15 -51 11 -21 -3 -36 -1 -33 3 3 5 0 10 -7 13 -7 2 -2 2 12 0 19 -3 22
-1 10 7 -8 5 -25 10 -38 10 -13 0 -21 4 -18 9 3 5 -1 11 -9 15 -19 7 -19 30 0
46 8 7 15 18 14 24 0 7 -2 6 -6 -1 -2 -7 -11 -13 -19 -13 -13 0 -15 39 -13
267 0 146 4 261 8 254 6 -10 10 -9 14 3 3 8 1 17 -6 19 -8 3 -5 10 8 22 11 9
13 13 5 9 -10 -5 -12 -4 -5 4 6 5 19 12 29 14 11 1 22 10 24 18 5 13 3 13 -13
0 -10 -8 -16 -9 -11 -3 7 13 59 39 91 46 19 4 81 0 135 -8z m2153 -5 c7 -5 26
-21 43 -35 55 -44 64 -92 64 -359 0 -129 -3 -237 -7 -239 -5 -3 -8 106 -7 241
1 136 0 234 -2 217 -2 -16 -5 -139 -6 -273 -2 -159 -7 -245 -14 -250 -6 -4
-13 -15 -17 -24 -3 -10 -16 -18 -28 -18 -15 0 -19 4 -15 16 3 9 2 12 -5 9 -6
-4 -8 -12 -6 -19 3 -7 -4 -13 -16 -13 -11 -1 -24 -6 -29 -11 -12 -12 43 -9 63
3 12 7 12 6 1 -7 -8 -9 -19 -15 -27 -12 -7 3 -16 0 -20 -6 -4 -7 -37 -10 -87
-9 -55 1 -75 5 -64 11 23 13 20 27 -4 21 -11 -3 -20 -9 -20 -14 0 -18 -59 21
-66 43 -4 13 -15 29 -26 36 -12 9 -17 20 -13 33 4 11 2 19 -5 19 -7 0 -10 75
-8 248 l3 247 23 -2 c24 -3 30 20 12 47 -8 11 -9 7 -4 -15 7 -27 6 -29 -9 -16
-22 18 -21 26 6 64 25 37 38 48 48 41 4 -2 9 3 13 11 8 23 25 18 19 -6 -4 -13
-12 -19 -22 -16 -10 2 -17 -2 -18 -12 -1 -9 -4 -36 -7 -61 -7 -51 -1 -43 8 11
6 32 9 36 30 32 13 -3 32 0 43 6 14 8 10 9 -22 6 l-40 -5 38 11 c39 12 53 31
15 21 -21 -5 -22 -4 -8 14 8 10 20 23 25 27 13 10 153 -1 168 -13z m755 -2
c21 -6 32 -16 32 -28 0 -10 5 -22 12 -26 7 -4 8 -3 4 4 -4 7 -1 12 8 12 9 0
18 -11 22 -25 3 -14 10 -23 14 -20 15 10 19 -43 20 -297 0 -171 -3 -258 -10
-258 -6 0 -10 83 -10 244 0 204 -2 246 -15 256 -10 9 -15 9 -15 1 0 -6 5 -11
10 -11 11 0 15 -456 4 -484 -5 -13 -9 -14 -20 -5 -11 9 -14 8 -14 -5 0 -10 5
-14 10 -11 6 3 10 -3 10 -15 0 -12 4 -19 10 -15 5 3 7 12 3 20 -3 8 0 15 6 15
18 0 25 -28 11 -45 -6 -7 -17 -12 -24 -9 -7 3 -19 -3 -27 -13 -13 -17 -13 -17
6 -3 19 15 19 15 0 -11 -11 -15 -26 -24 -33 -22 -8 3 -10 0 -6 -10 4 -12 1
-14 -15 -10 -12 3 -21 9 -21 14 0 5 -9 0 -21 -12 -17 -17 -30 -20 -72 -16 -83
7 -112 20 -114 47 -1 14 4 20 20 20 18 0 20 -2 7 -11 -12 -9 -12 -10 3 -5 10
3 23 6 28 6 5 0 9 4 9 9 0 10 -29 12 -68 5 -14 -3 -20 -9 -16 -16 4 -7 3 -8
-5 -4 -6 4 -9 11 -6 16 3 4 -2 13 -10 20 -7 6 -11 19 -8 27 5 12 3 14 -6 8
-10 -6 -11 -2 -6 15 4 13 3 20 -2 17 -5 -3 -8 11 -6 31 2 32 1 34 -6 12 -6
-16 -9 59 -10 202 -1 125 3 237 8 250 18 44 24 63 25 73 1 6 15 11 31 12 29 2
29 2 5 -7 -22 -7 -21 -8 11 -7 23 1 35 6 32 14 -6 14 -32 25 -44 17 -22 -13
-7 7 16 22 48 31 153 37 233 12z m982 -3328 c0 -1765 0 -1769 -21 -1825 -27
-72 -101 -153 -176 -190 l-58 -30 -2585 0 -2585 0 -58 29 c-78 39 -133 95
-171 175 l-31 66 -3 1773 -2 1772 2845 0 2845 0 0 -1770z"/>
<path d="M1455 4139 c-17 -4 -44 -22 -60 -39 l-30 -31 -3 -282 c-2 -268 -1
-284 18 -315 11 -18 34 -41 52 -52 32 -19 47 -20 358 -18 l325 3 32 24 c60 45
63 62 63 348 0 298 -3 311 -80 351 -43 21 -52 22 -345 21 -165 0 -314 -5 -330
-10z m656 -88 c24 -19 24 -21 27 -262 3 -261 -1 -293 -45 -310 -26 -10 -574
-13 -609 -3 -11 3 -28 18 -37 34 -15 24 -17 62 -17 269 l0 242 25 24 24 25
304 0 c285 0 306 -1 328 -19z"/>
<path d="M5616 4140 c-34 -11 -82 -54 -102 -92 -11 -21 -14 -80 -14 -268 0
-265 4 -286 59 -333 53 -44 90 -48 389 -45 270 3 278 4 315 26 20 13 49 43 63
67 l25 43 -3 250 -3 249 -28 36 c-54 71 -58 72 -382 74 -159 1 -303 -2 -319
-7z m615 -80 c43 -24 49 -57 49 -279 0 -218 -5 -250 -43 -282 -20 -17 -44 -18
-315 -19 l-293 0 -24 24 c-37 37 -45 87 -45 276 0 193 8 239 47 270 25 19 39
20 315 20 179 0 297 -4 309 -10z"/>
<path d="M4910 3680 c-229 -27 -938 -108 -1220 -139 -102 -12 -241 -28 -310
-36 -69 -8 -186 -22 -260 -30 -74 -9 -236 -27 -359 -40 -146 -16 -233 -30
-248 -40 -32 -22 -38 -56 -25 -155 7 -48 12 -155 12 -238 0 -164 7 -196 45
-214 l25 -11 0 -575 c0 -561 0 -575 21 -611 11 -20 36 -48 56 -61 l37 -25
1186 0 1186 0 42 27 c81 54 77 21 80 666 l3 574 29 25 30 25 0 146 c-1 153 -4
168 -47 190 -15 9 -152 12 -475 13 l-453 2 195 22 c107 13 303 35 435 49 282
32 293 34 318 68 18 25 18 29 2 179 -9 84 -21 161 -26 171 -23 43 -48 45 -279
18z m-2196 -412 c-6 -10 -4 -10 7 -2 16 13 92 6 83 -7 -3 -5 2 -9 11 -9 15 0
15 -1 1 -16 -19 -18 -21 -28 -4 -18 8 5 9 2 5 -9 -3 -10 -4 -17 -1 -17 2 0 9
12 15 27 l10 27 20 -30 c21 -34 31 -91 17 -100 -5 -3 -6 -13 -3 -23 3 -9 -2
-26 -10 -37 -8 -10 -15 -14 -15 -7 0 6 4 15 10 18 6 4 5 13 -2 25 -9 13 -16
16 -24 9 -8 -7 -14 -6 -17 1 -3 6 -4 5 -3 -2 2 -7 10 -12 19 -10 13 2 15 -5
13 -35 -3 -27 -9 -38 -20 -37 -9 1 -16 -3 -16 -10 0 -7 -23 -11 -64 -11 -36 1
-62 -3 -60 -7 3 -4 -2 -5 -10 -2 -9 3 -16 10 -16 14 0 5 -9 12 -21 15 -11 4
-18 9 -15 12 3 4 -2 11 -11 18 -12 9 -17 31 -19 76 -3 48 -1 58 6 39 8 -23 9
-21 7 11 -2 57 49 105 79 74 18 -17 34 -20 34 -5 0 6 -7 10 -15 10 -18 0 -20
16 -2 23 18 8 19 8 11 -5z m-24 -512 c0 -8 -6 -17 -12 -19 -8 -3 -6 -6 5 -6
11 -1 17 6 17 19 0 20 7 20 1181 20 856 0 1178 -3 1173 -11 -5 -8 -1 -8 14 0
26 14 32 14 32 0 0 -5 -4 -7 -10 -4 -5 3 -10 -1 -10 -9 0 -9 6 -16 13 -16 8 0
7 -4 -3 -10 -11 -7 -11 -10 -2 -10 10 0 12 -106 10 -540 -3 -498 -4 -541 -20
-557 -10 -10 -18 -12 -18 -6 0 7 4 15 10 18 6 3 10 11 10 17 0 7 -6 6 -15 -2
-8 -7 -15 -20 -15 -30 0 -10 -7 -21 -16 -24 -9 -3 -538 -6 -1176 -6 -976 1
-1158 3 -1148 15 7 9 8 15 0 20 -5 3 -10 1 -10 -4 0 -6 -5 -11 -11 -11 -6 0
-8 7 -5 16 4 12 2 15 -9 10 -8 -3 -15 -2 -15 2 0 14 0 1117 0 1130 0 6 7 12
15 12 8 0 15 -6 15 -14z"/>
<path d="M3298 2753 c320 -2 844 -2 1165 0 320 1 58 2 -583 2 -641 0 -903 -1
-582 -2z"/>
<path d="M3287 2733 c320 -2 846 -2 1170 0 323 1 62 2 -582 2 -643 0 -908 -1
-588 -2z"/>
<path d="M5617 2956 c-45 -17 -82 -49 -105 -91 -13 -24 -17 -70 -20 -243 -5
-284 10 -341 102 -383 37 -17 70 -19 324 -19 232 0 289 3 319 15 48 20 71 41
95 88 17 35 19 57 16 281 -3 240 -3 243 -28 279 -13 20 -43 46 -65 59 -39 22
-48 23 -320 25 -220 2 -288 0 -318 -11z m630 -99 l28 -27 3 -213 c4 -239 -1
-271 -51 -304 -32 -22 -40 -23 -303 -23 -295 0 -302 2 -342 60 -23 34 -23 38
-20 252 3 202 4 219 24 245 11 15 34 33 51 38 18 6 134 8 306 5 l277 -5 27
-28z"/>
<path d="M1445 2946 c-39 -17 -64 -46 -81 -93 -15 -44 -19 -453 -5 -517 12
-48 52 -91 105 -111 35 -13 87 -15 331 -13 322 3 341 7 388 72 21 30 22 38 22
303 0 260 -1 273 -21 300 -11 15 -36 38 -54 51 -32 22 -38 22 -344 22 -236 -1
-318 -4 -341 -14z m659 -85 l26 -24 0 -243 c0 -133 -3 -250 -6 -259 -16 -41
-50 -45 -353 -45 l-289 0 -26 31 -26 31 0 234 c0 142 4 243 10 254 25 47 47
50 352 47 l286 -2 26 -24z"/>
<path d="M5572 1819 c-29 -15 -50 -35 -65 -63 -20 -37 -22 -59 -25 -235 -6
-301 6 -357 85 -403 29 -17 57 -19 349 -18 354 0 355 1 401 70 22 32 23 40 23
295 0 255 -1 263 -22 295 -13 18 -36 43 -51 54 -27 20 -42 21 -340 24 -302 2
-313 2 -355 -19z m676 -85 c22 -25 22 -30 22 -270 l0 -245 -25 -24 -24 -25
-307 0 c-302 0 -308 0 -331 22 -23 21 -23 23 -23 272 1 182 4 255 13 267 30
39 42 40 352 34 l300 -6 23 -25z"/>
<path d="M1457 1766 c-21 -8 -48 -22 -59 -33 -44 -38 -48 -68 -48 -335 0 -290
3 -305 80 -345 42 -22 50 -23 341 -23 335 0 353 3 402 67 l27 36 0 267 c0 260
-1 268 -23 300 -12 19 -38 43 -57 54 -33 20 -53 21 -330 23 -231 2 -303 0
-333 -11z m640 -90 l28 -24 0 -252 0 -251 -25 -19 c-23 -18 -45 -20 -326 -20
-286 0 -301 1 -321 20 -30 28 -35 77 -31 314 l3 208 28 24 28 24 294 0 294 0
28 -24z"/>
</g>
</svg>
