<svg width="50" height="36" viewBox="0 0 50 36" fill="none" xmlns="http://www.w3.org/2000/svg">
<path d="M33.125 18C31.0369 18 29.0178 17.0677 27.4375 15.3756C25.9009 13.7252 24.9624 11.5244 24.7969 9.18031C24.6202 6.67984 25.3829 4.38047 26.9439 2.70469C28.5049 1.02891 30.6875 0.125 33.125 0.125C35.5452 0.125 37.7339 1.04516 39.2899 2.71687C40.861 4.40484 41.6258 6.70016 41.4491 9.1793C41.2795 11.5264 40.342 13.7262 38.8084 15.3746C37.2322 17.0677 35.2141 18 33.125 18ZM46.514 35.875H19.737C19.3065 35.8773 18.8812 35.7808 18.4939 35.5929C18.1065 35.4051 17.7674 35.1308 17.5027 34.7913C17.2218 34.4233 17.0279 33.9965 16.9354 33.5429C16.8429 33.0893 16.8542 32.6206 16.9684 32.172C17.8236 28.7382 19.9422 25.8904 23.0947 23.9373C25.8927 22.2047 29.4545 21.25 33.125 21.25C36.8676 21.25 40.3359 22.1641 43.1502 23.8957C46.3099 25.8386 48.4315 28.7027 49.2826 32.1781C49.3955 32.6271 49.4055 33.0957 49.3119 33.5491C49.2184 34.0024 49.0236 34.4288 48.7423 34.7964C48.4778 35.1343 48.1395 35.4072 47.7532 35.5942C47.367 35.7811 46.9431 35.8772 46.514 35.875ZM13.9297 18.4062C10.3557 18.4062 7.21337 15.0831 6.92188 10.9993C6.77766 8.90711 7.42969 6.97234 8.75001 5.55351C10.0561 4.14891 11.8984 3.375 13.9297 3.375C15.9609 3.375 17.7891 4.15297 19.1023 5.5657C20.4327 6.9957 21.0827 8.92641 20.9304 11.0013C20.6389 15.0841 17.4976 18.4062 13.9297 18.4062ZM20.5983 21.6004C18.8118 20.727 16.4931 20.2902 13.9307 20.2902C10.9387 20.2902 8.03298 21.0702 5.74782 22.486C3.15696 24.0937 1.41415 26.4348 0.710319 29.2612C0.60732 29.6678 0.597578 30.0924 0.681822 30.5032C0.766066 30.9141 0.942116 31.3005 1.1968 31.6337C1.43847 31.944 1.74807 32.1947 2.10179 32.3665C2.45552 32.5384 2.84394 32.6268 3.23719 32.625H14.5106C14.7009 32.625 14.8851 32.5582 15.0312 32.4362C15.1773 32.3143 15.2759 32.1449 15.3099 31.9577C15.3211 31.8937 15.3353 31.8298 15.3516 31.7668C16.2128 28.3076 18.2309 25.3846 21.2127 23.2538C21.3224 23.1748 21.4106 23.0696 21.4694 22.9478C21.5281 22.8261 21.5556 22.6916 21.5492 22.5565C21.5429 22.4215 21.5029 22.2902 21.433 22.1744C21.3631 22.0587 21.2654 21.9623 21.1488 21.8939C20.9893 21.8005 20.8065 21.702 20.5983 21.6004Z" fill="white"/>
</svg>
