<svg width="32" height="42" viewBox="0 0 32 42" fill="none" xmlns="http://www.w3.org/2000/svg">
<path d="M6.03768 3.75C5.16668 5.258 5.16668 7.28167 5.16668 11.3333V17.8918C6.09835 17.8333 7.14701 17.8333 8.27585 17.8333H23.7242C24.8508 17.8333 25.9017 17.8333 26.8333 17.8918V11.3333C26.8333 7.28167 26.8333 5.258 25.9623 3.75C25.3919 2.76196 24.5714 1.94147 23.5833 1.371C22.0753 0.5 20.0517 0.5 16 0.5C11.9483 0.5 9.92468 0.5 8.41668 1.371C7.42864 1.94147 6.60815 2.76196 6.03768 3.75ZM3.54168 28.6472C2.45401 28.6038 1.79535 28.4565 1.34468 27.9647C0.701179 27.2627 0.78568 26.2877 0.95468 24.3355C1.07385 22.9272 1.34685 21.9782 1.96651 21.2697C3.07585 20 4.85901 20 8.42751 20H23.5725C27.141 20 28.9242 20 30.0335 21.2697C30.6532 21.976 30.9262 22.925 31.0475 24.3355C31.2143 26.2855 31.2988 27.2627 30.6553 27.9647C30.2047 28.4565 29.546 28.6038 28.4583 28.6472V39.5C28.4583 39.931 28.2871 40.3443 27.9824 40.6491C27.6776 40.9538 27.2643 41.125 26.8333 41.125C26.4024 41.125 25.989 40.9538 25.6843 40.6491C25.3795 40.3443 25.2083 39.931 25.2083 39.5V28.6667H6.79168V39.5C6.79168 39.931 6.62047 40.3443 6.31573 40.6491C6.01098 40.9538 5.59766 41.125 5.16668 41.125C4.7357 41.125 4.32238 40.9538 4.01763 40.6491C3.71288 40.3443 3.54168 39.931 3.54168 39.5V28.6472Z" fill="white"/>
</svg>
