<svg width="31" height="41" viewBox="0 0 31 41" fill="none" xmlns="http://www.w3.org/2000/svg">
<path d="M5.20406 3.25C4.33306 4.758 4.33306 6.78167 4.33306 10.8333V17.3918C5.26473 17.3333 6.3134 17.3333 7.44223 17.3333H22.8906C24.0172 17.3333 25.0681 17.3333 25.9997 17.3918V10.8333C25.9997 6.78167 25.9997 4.758 25.1287 3.25C24.5583 2.26196 23.7378 1.44147 22.7497 0.871C21.2417 -1.29143e-07 19.2181 0 15.1664 0C11.1147 0 9.09106 -1.29143e-07 7.58306 0.871C6.59502 1.44147 5.77453 2.26196 5.20406 3.25ZM2.70806 28.1472C1.62039 28.1038 0.961728 27.9565 0.511061 27.4647C-0.132439 26.7627 -0.0479385 25.7877 0.121061 23.8355C0.240228 22.4272 0.513227 21.4782 1.13289 20.7697C2.24223 19.5 4.02539 19.5 7.59389 19.5H22.7389C26.3074 19.5 28.0906 19.5 29.1999 20.7697C29.8196 21.476 30.0926 22.425 30.2139 23.8355C30.3807 25.7855 30.4652 26.7627 29.8217 27.4647C29.3711 27.9565 28.7124 28.1038 27.6247 28.1472V39C27.6247 39.431 27.4535 39.8443 27.1488 40.1491C26.844 40.4538 26.4307 40.625 25.9997 40.625C25.5688 40.625 25.1554 40.4538 24.8507 40.1491C24.5459 39.8443 24.3747 39.431 24.3747 39V28.1667H5.95806V39C5.95806 39.431 5.78686 39.8443 5.48211 40.1491C5.17736 40.4538 4.76404 40.625 4.33306 40.625C3.90208 40.625 3.48876 40.4538 3.18401 40.1491C2.87927 39.8443 2.70806 39.431 2.70806 39V28.1472Z" fill="white"/>
</svg>
