<svg width="23" height="24" viewBox="0 0 23 24" fill="none" xmlns="http://www.w3.org/2000/svg">
<path d="M14.1941 0.311C13.3139 0.114663 12.4158 0.0104352 11.5141 0C10.5914 0.0106667 9.69007 0.114333 8.81007 0.311C8.622 0.352609 8.45173 0.452198 8.32327 0.595727C8.19481 0.739256 8.11464 0.919484 8.09407 1.111L7.88507 2.988C7.85511 3.25275 7.76359 3.50681 7.61784 3.72984C7.47209 3.95288 7.27615 4.1387 7.04571 4.27244C6.81527 4.40618 6.55672 4.48411 6.29076 4.50001C6.02479 4.51591 5.7588 4.46933 5.51407 4.364L3.79407 3.607C3.61948 3.53014 3.42533 3.50945 3.23847 3.54779C3.0516 3.58613 2.88128 3.6816 2.75107 3.821C1.50715 5.15208 0.580966 6.74769 0.0420677 8.488C-0.0153128 8.67117 -0.013962 8.86771 0.0459308 9.05008C0.105824 9.23244 0.221259 9.39151 0.376068 9.505L1.90307 10.63C2.11804 10.7879 2.29282 10.9942 2.4133 11.2322C2.53377 11.4702 2.59654 11.7332 2.59654 12C2.59654 12.2668 2.53377 12.5298 2.4133 12.7678C2.29282 13.0058 2.11804 13.2121 1.90307 13.37L0.376068 14.498C0.221458 14.6114 0.106153 14.7703 0.0462691 14.9525C-0.0136147 15.1346 -0.0150837 15.331 0.0420677 15.514C0.580969 17.2554 1.50634 18.8524 2.74907 20.186C2.87916 20.3256 3.04943 20.4212 3.2363 20.4598C3.42316 20.4983 3.61738 20.4777 3.79207 20.401L5.52007 19.642C5.76349 19.5362 6.02829 19.4889 6.29328 19.5038C6.55827 19.5188 6.81608 19.5955 7.04607 19.728C7.51207 19.998 7.82307 20.473 7.88407 21.009L8.09207 22.886C8.11254 23.0749 8.19101 23.2529 8.31671 23.3954C8.44242 23.538 8.60917 23.6381 8.79407 23.682C10.5736 24.1051 12.4275 24.1051 14.2071 23.682C14.392 23.6381 14.5587 23.538 14.6844 23.3954C14.8101 23.2529 14.8886 23.0749 14.9091 22.886L15.1171 21.006C15.1453 20.7411 15.2356 20.4866 15.3807 20.2632C15.5259 20.0397 15.7216 19.8537 15.9522 19.7202C16.1827 19.5867 16.4415 19.5095 16.7076 19.4949C16.9736 19.4802 17.2393 19.5286 17.4831 19.636L19.2101 20.395C19.3848 20.4717 19.579 20.4923 19.7658 20.4538C19.9527 20.4152 20.123 20.3196 20.2531 20.18C21.4951 18.8479 22.4205 17.2526 22.9601 15.513C23.0174 15.3298 23.0161 15.1333 22.9562 14.9509C22.8963 14.7686 22.7809 14.6095 22.6261 14.496L21.1011 13.37C20.886 13.2121 20.7112 13.0059 20.5906 12.7679C20.4701 12.53 20.4072 12.267 20.4071 12.0003C20.407 11.7335 20.4697 11.4705 20.5901 11.2324C20.7104 10.9944 20.8852 10.788 21.1001 10.63L22.6251 9.503C22.7795 9.38945 22.8946 9.23049 22.9543 9.04834C23.014 8.86619 23.0153 8.66994 22.9581 8.487C22.4195 6.74678 21.4936 5.15118 20.2501 3.82C20.1199 3.6806 19.9495 3.58513 19.7627 3.54679C19.5758 3.50845 19.3817 3.52914 19.2071 3.606L17.4871 4.363C17.2727 4.45732 17.0412 4.50635 16.8071 4.507C16.3881 4.50645 15.9841 4.3512 15.6726 4.07105C15.361 3.79089 15.1639 3.40556 15.1191 2.989L14.9091 1.11C14.8884 0.918931 14.8085 0.739124 14.6804 0.595823C14.5523 0.452521 14.3816 0.35292 14.1941 0.311ZM11.5011 16C10.4402 16 9.42279 15.5786 8.67264 14.8284C7.9225 14.0783 7.50107 13.0609 7.50107 12C7.50107 10.9391 7.9225 9.92172 8.67264 9.17157C9.42279 8.42143 10.4402 8 11.5011 8C12.5619 8 13.5793 8.42143 14.3295 9.17157C15.0796 9.92172 15.5011 10.9391 15.5011 12C15.5011 13.0609 15.0796 14.0783 14.3295 14.8284C13.5793 15.5786 12.5619 16 11.5011 16Z" fill="white"/>
</svg>
