<svg width="73" height="73" viewBox="0 0 73 73" fill="none" xmlns="http://www.w3.org/2000/svg">
<path d="M34.675 10.95C35.159 10.95 35.6232 11.1422 35.9655 11.4845C36.3077 11.8268 36.5 12.291 36.5 12.775C36.5 13.259 36.3077 13.7232 35.9655 14.0654C35.6232 14.4077 35.159 14.6 34.675 14.6H21.9C19.9639 14.6 18.1071 15.3691 16.7381 16.7381C15.3691 18.1071 14.6 19.9639 14.6 21.9V51.1C14.6 53.0361 15.3691 54.8928 16.7381 56.2619C18.1071 57.6309 19.9639 58.4 21.9 58.4H51.1C53.0361 58.4 54.8929 57.6309 56.2619 56.2619C57.6309 54.8928 58.4 53.0361 58.4 51.1V45.625C58.4 45.141 58.5923 44.6768 58.9345 44.3345C59.2768 43.9922 59.741 43.8 60.225 43.8C60.709 43.8 61.1732 43.9922 61.5155 44.3345C61.8577 44.6768 62.05 45.141 62.05 45.625V51.1C62.05 54.0041 60.8964 56.7893 58.8428 58.8428C56.7893 60.8963 54.0041 62.05 51.1 62.05H21.9C18.9959 62.05 16.2107 60.8963 14.1572 58.8428C12.1037 56.7893 10.95 54.0041 10.95 51.1V21.9C10.95 18.9959 12.1037 16.2107 14.1572 14.1572C16.2107 12.1036 18.9959 10.95 21.9 10.95H34.675ZM48.5341 7.45692C48.8563 7.31327 49.2133 7.26613 49.5619 7.32119C49.9104 7.37625 50.2355 7.53117 50.4978 7.76717L68.7478 24.1922C68.9383 24.3633 69.0907 24.5727 69.1951 24.8066C69.2994 25.0405 69.3533 25.2938 69.3533 25.55C69.3533 25.8061 69.2994 26.0594 69.1951 26.2933C69.0907 26.5273 68.9383 26.7366 68.7478 26.9078L50.4978 43.3328C50.2355 43.5695 49.9102 43.7249 49.5613 43.7804C49.2125 43.8358 48.855 43.7888 48.5323 43.645C48.2096 43.5013 47.9356 43.2669 47.7435 42.9705C47.5514 42.6741 47.4494 42.3282 47.45 41.975V34.091C42.34 34.5582 37.7228 36.938 33.945 39.9602C30.2439 42.9276 27.4663 46.4134 25.9333 49.0268L25.3566 50.0889C25.1726 50.456 24.8701 50.7504 24.4982 50.9243C24.1262 51.0983 23.7064 51.1417 23.3067 51.0476C22.907 50.9535 22.5507 50.7273 22.2954 50.4056C22.0402 50.084 21.9009 49.6856 21.9 49.275C21.9 41.7961 23.2943 33.6384 27.4444 27.2874C31.4229 21.1992 37.8396 16.9469 47.45 16.4724V9.12497L47.4683 8.85852C47.5133 8.55397 47.6346 8.26575 47.8209 8.02068C48.0073 7.77562 48.2526 7.58169 48.5341 7.45692Z" fill="white"/>
</svg>
