<svg width="128" height="104" viewBox="0 0 128 104" fill="none" xmlns="http://www.w3.org/2000/svg">
<path d="M68.5763 104V74.2857H86.8634L64.0046 44.5714L41.1458 74.2857H59.4328V104H36.574V103.752C35.806 103.802 35.0745 104 34.2882 104C25.1944 104 16.473 100.087 10.0428 93.1211C3.61249 86.1555 0 76.708 0 66.8571C0 47.8004 13.3038 32.2697 30.3747 30.1402C31.8715 21.6646 36.0478 14.019 42.1855 8.51816C48.3232 3.01736 56.0386 0.00528931 64.0046 0C71.9717 0.00477075 79.6884 3.01644 85.8276 8.51713C91.9668 14.0178 96.145 21.6638 97.6436 30.1402C114.714 32.2697 128 47.8004 128 66.8571C128 76.708 124.388 86.1555 117.957 93.1211C111.527 100.087 102.806 104 93.7118 104C92.9438 104 92.2032 103.802 91.426 103.752V104H68.5763Z" fill="white"/>
</svg>
