<svg width="47" height="31" viewBox="0 0 47 31" fill="none" xmlns="http://www.w3.org/2000/svg">
<path d="M0.785706 7.45539C0.785706 5.57283 1.53355 3.76737 2.86472 2.4362C4.1959 1.10502 6.00136 0.357178 7.88392 0.357178H23.9732C25.8558 0.357178 27.6612 1.10502 28.9924 2.4362C30.3236 3.76737 31.0714 5.57283 31.0714 7.45539V23.5447C31.0714 25.4272 30.3236 27.2327 28.9924 28.5639C27.6612 29.895 25.8558 30.6429 23.9732 30.6429H7.88392C6.00136 30.6429 4.1959 29.895 2.86472 28.5639C1.53355 27.2327 0.785706 25.4272 0.785706 23.5447V7.45539ZM41.0127 28.15L32.9643 22.5926V8.40182L41.0127 2.84439C43.2084 1.32632 46.2067 2.90118 46.2067 5.57011V25.4262C46.2067 28.0951 43.2103 29.6662 41.0127 28.15Z" fill="white"/>
</svg>
